<svg xmlns="http://www.w3.org/2000/svg" xmlns:xlink="http://www.w3.org/1999/xlink" viewBox="0 0 934.36 934.36"><defs><style>.a{fill:#fff;}.b{fill:url(#a);}.c,.d{fill:#d8d8d8;}.c{opacity:0.6;}.e{fill:url(#b);}.f{fill:url(#d);}.g{fill:url(#e);}</style><linearGradient id="a" x1="95.82" y1="748.03" x2="854.11" y2="202" gradientUnits="userSpaceOnUse"><stop offset="0" stop-color="#2c4975"/><stop offset="1" stop-color="#30abd6"/></linearGradient><linearGradient id="b" x1="178.9" y1="688.46" x2="746.26" y2="279.91" xlink:href="#a"/><linearGradient id="d" x1="189.78" y1="668.35" x2="875.18" y2="220.71" gradientUnits="userSpaceOnUse"><stop offset="0" stop-color="#2c4975"/><stop offset="1" stop-color="#399dbf"/></linearGradient><linearGradient id="e" x1="515.66" y1="726.6" x2="703.27" y2="122.99" xlink:href="#d"/></defs><title>LOGO-BELT-SEM-B</title><path class="a" d="M921.28,475c0,5.78-.09,11.53-.31,17.25q-.86,21.78-3.74,43a441.86,441.86,0,0,1-33.51,119.24s0,.09-.06.12c-69.11,157-226.09,266.7-408.66,266.7C228.54,921.29,28.72,721.47,28.72,475,28.72,241,208.87,49,438,30.24q18.29-1.51,37-1.51A444.16,444.16,0,0,1,682.18,79.64,436.41,436.41,0,0,1,721.55,103c112.58,74.74,189.3,199.23,198.73,342.1Q921.27,459.94,921.28,475Z" transform="translate(-7.82 -7.83)"/><path class="b" d="M475,942.19A467.19,467.19,0,0,1,436.33,9.41C449,8.36,462.05,7.83,475,7.83A468.06,468.06,0,0,1,691.9,61.14a458,458,0,0,1,41.26,24.47,466.77,466.77,0,0,1,208,358.1c.7,10.46,1,21,1,31.3,0,6.39-.11,12.3-.33,18.06-.58,15-1.9,30.17-3.91,45a462.8,462.8,0,0,1-35.09,124.85l-1.55,3.47A467.31,467.31,0,0,1,475,942.19Zm0-892.56c-11.81,0-23.67.48-35.24,1.44C221,69,49.62,255.23,49.62,475c0,234.56,190.82,425.38,425.38,425.38A425.73,425.73,0,0,0,864.53,646.17l0-.08,0-.07.95-2.15a421,421,0,0,0,31-111.43c1.84-13.51,3-27.29,3.57-41,.2-5.21.3-10.59.3-16.44,0-9.38-.32-19-1-28.53C890.77,315.3,820,193.4,710,120.41a414.11,414.11,0,0,0-37.53-22.26A426.19,426.19,0,0,0,475,49.63Z" transform="translate(-7.82 -7.83)"/><path class="c" d="M519.16,875.17a431.69,431.69,0,0,1-168.6-829A428.85,428.85,0,0,1,518.23,12h0a10.45,10.45,0,0,1,0,20.9c-226,.48-409.8,184.71-409.8,410.69,0,226.46,184.23,410.69,410.69,410.69A411.22,411.22,0,0,0,894.68,610.1a10.45,10.45,0,0,1,19.1,8.48A431.64,431.64,0,0,1,519.16,875.17Z" transform="translate(-7.82 -7.83)"/><path class="d" d="M920.28,445.09q1,14.85,1,29.92c0,5.78-.09,11.53-.31,17.25-32.25,167.42-179.55,293.89-356.4,293.89-200.48,0-363-162.51-363-363s162.52-363,363-363A362.43,362.43,0,0,1,682.18,79.64,436.41,436.41,0,0,1,721.55,103c118.08,55.92,199.73,176.16,199.73,315.45Q921.28,431.88,920.28,445.09Z" transform="translate(-7.82 -7.83)"/><path class="e" d="M519,862.6A419.13,419.13,0,0,1,355.31,57.74,416.5,416.5,0,0,1,518.1,24.56h0a10.45,10.45,0,0,1,0,20.9c-219,.46-397.26,179.06-397.26,398.12,0,219.53,178.6,398.12,398.12,398.12,186.83,0,346.39-127,388-308.81a10.45,10.45,0,0,1,20.37,4.67C906.59,628.48,854.9,711,781.88,769.9A417.35,417.35,0,0,1,519,862.6Z" transform="translate(-7.82 -7.83)"/><path class="b" d="M475,942.19A467.19,467.19,0,0,1,436.33,9.41C449,8.36,462.05,7.83,475,7.83A468.06,468.06,0,0,1,691.9,61.14a458,458,0,0,1,41.26,24.47,466.77,466.77,0,0,1,208,358.1c.7,10.46,1,21,1,31.3,0,6.39-.11,12.3-.33,18.06-.58,15-1.9,30.17-3.91,45a462.8,462.8,0,0,1-35.09,124.85l-1.55,3.47A467.31,467.31,0,0,1,475,942.19Zm0-892.56c-11.81,0-23.67.48-35.24,1.44C221,69,49.62,255.23,49.62,475c0,234.56,190.82,425.38,425.38,425.38A425.73,425.73,0,0,0,864.53,646.17l0-.08,0-.07.95-2.15a421,421,0,0,0,31-111.43c1.84-13.51,3-27.29,3.57-41,.2-5.21.3-10.59.3-16.44,0-9.38-.32-19-1-28.53C890.77,315.3,820,193.4,710,120.41a414.11,414.11,0,0,0-37.53-22.26A426.19,426.19,0,0,0,475,49.63Z" transform="translate(-7.82 -7.83)"/><path class="f" d="M921.28,418.44q0,13.44-1,26.65c-13.61,180.21-164.15,322.2-347.85,322.2-192.66,0-348.86-156.19-348.86-348.85S379.77,69.59,572.43,69.59A347.12,347.12,0,0,1,721.55,103C839.63,158.91,921.28,279.15,921.28,418.44Z" transform="translate(-7.82 -7.83)"/><path class="g" d="M921.28,407.44q0,11.81-.88,23.41c-12,158.29-144.19,283-305.54,283-169.23,0-306.43-137.21-306.43-306.43S445.63,101,614.86,101a304.87,304.87,0,0,1,131,29.35C849.56,179.47,921.28,285.09,921.28,407.44Z" transform="translate(-7.82 -7.83)"/></svg>